# xmcd CD database file
#
# Track frame offsets:
#	150
#	5355
#	33260
#	71200
#	117382
#	159780
#	180017
#	229942
#	259655
#
# Disc length: 4262 seconds
#
# Revision: 0
# Processed by: cddbd v1.5.1PL0 Copyright (c) Steve Scherf et al.
# Submitted via: CDex 1.50beta9
#
DISCID=6510a409
DTITLE=Markus Noichl - Pasquale Leogrande - The Silence of Rhythm
DYEAR=1900
DGENRE=New Age
TTITLE0=Talking Drum
TTITLE1=Seven in Heart
TTITLE2=El Dorado
TTITLE3=Anna
TTITLE4=Die Reise zum Zauberberg
TTITLE5=Regenlied
TTITLE6=Lifeline
TTITLE7=The Silence of Rhythm
TTITLE8=Trockenes Land
EXTD=
EXTT0=
EXTT1=
EXTT2=
EXTT3=
EXTT4=
EXTT5=
EXTT6=
EXTT7=
EXTT8=
PLAYORDER=
